#!OML:ASF F:\VICON\USERDATA\INSTALL\rory3\rory3.ASF
:FULLY-SPECIFIED
:DEGREES
181
root 2.2288 16.9445 37.7845 -8.07163 -9.21399 8.83982
lowerback 30.9961 -1.66368 0.507823
upperback 5.23287 -1.02769 8.18714
thorax -10.3718 -0.452174 8.92578
lowerneck -0.283615 -13.1511 -8.87143
upperneck 25.0781 -17.5168 -0.910833
head 8.62298 -9.0767 -0.266867
rclavicle -2.06736e-014 -6.36111e-014
rhumerus -25.9383 -30.009 -47.734
rradius 40.037
rwrist 24.4449
rhand -21.9943 9.43548
rfingers 7.12502
rthumb 4.41424 -20.4985
lclavicle -2.06736e-014 -6.36111e-014
lhumerus -44.1416 8.22272 79.3398
lradius 55.7931
lwrist 14.5947
lhand -13.705 47.7056
lfingers 7.12502
lthumb 12.4135 77.317
rfemur -38.2689 4.39392 10.3783
rtibia 37.3102
rfoot 10.233 -4.98278
rtoes 17.4662
lfemur -7.40456 4.31805 -34.4257
ltibia 57.3179
lfoot -10.9181 -4.7525
ltoes -29.9935
182
root 2.25554 16.9828 37.6448 -8.15258 -9.22497 8.73026
lowerback 31.2455 -1.83422 0.499884
upperback 4.89592 -1.20864 8.20181
thorax -10.8279 -0.515919 9.04363
lowerneck 0.517798 -13.0122 -8.99244
upperneck 24.9969 -17.3506 -1.09636
head 8.44367 -9.04036 -0.226058
rclavicle -4.77083e-015 2.54444e-014
rhumerus -27.9954 -28.3524 -47.6615
rradius 42.8112
rwrist 23.5044
rhand -22.7377 9.62624
rfingers 7.12502
rthumb 3.69645 -20.3214
lclavicle -4.77083e-015 2.54444e-014
lhumerus -45.2526 8.06411 79.4075
lradius 55.4928
lwrist 14.8563
lhand -14.3688 47.6158
lfingers 7.12502
lthumb 11.7735 77.2649
rfemur -37.6746 4.22096 10.2887
rtibia 35.6362
rfoot 11.7146 -5.10641
rtoes 20.0446
lfemur -6.80971 3.95032 -34.6326
ltibia 56.0071
lfoot -12.7022 -3.73463
ltoes -29.1422
183
root 2.25911 16.9946 37.4461 -7.80281 -9.83796 8.17551
lowerback 31.6463 -1.6611 0.267492
upperback 4.65991 -0.9888 8.5207
thorax -11.3047 -0.383945 9.47955
lowerneck 0.848038 -12.949 -9.36827
upperneck 25.1281 -17.3026 -0.995416
head 8.4785 -9.04707 -0.12216
rclavicle -3.49861e-014 -3.49861e-014
rhumerus -32.1758 -20.019 -49.0245
rradius 51.9862
rwrist 16.8029
rhand -23.0503 4.78542
rfingers 7.12502
rthumb 3.39448 -25.1673
lclavicle -3.49861e-014 -3.49861e-014
lhumerus -45.9776 8.16057 79.5201
lradius 55.2261
lwrist 14.8077
lhand -14.1545 48.0895
lfingers 7.12502
lthumb 11.9801 77.7267
rfemur -38.0168 5.65599 10.475
rtibia 34.0086
rfoot 13.6914 -6.60232
rtoes 22.2056
lfemur -7.16716 4.17659 -34.0883
ltibia 55.0383
lfoot -13.788 -2.70568
ltoes -28.653
184
root 2.28765 17.0104 37.2615 -7.61512 -9.65782 8.78503
lowerback 31.5935 -1.76778 -0.414471
upperback 4.60425 -1.37741 8.32211
thorax -11.2754 -0.539538 9.78946
lowerneck 0.841901 -12.8439 -9.49734
upperneck 25.0922 -17.1957 -0.77904
head 8.49472 -8.99098 -0.0266344
rclavicle 5.08889e-014 -9.54166e-015
rhumerus -32.0287 -22.9336 -48.8531
rradius 51.5814
rwrist 20.3552
rhand -23.7149 6.96565
rfingers 7.12502
rthumb 2.75265 -22.9963
lclavicle 5.08889e-014 -9.54166e-015
lhumerus -46.2352 8.29813 79.5414
lradius 54.8009
lwrist 14.6033
lhand -14.0294 47.948
lfingers 7.12502
lthumb 12.1007 77.5781
rfemur -38.3861 5.72265 9.23083
rtibia 32.7739
rfoot 15.4504 -7.89752
rtoes 24.8235
lfemur -7.24535 3.76882 -35.0865
ltibia 53.7062
lfoot -14.4466 -1.82456
ltoes -24.1207
185
root 2.31741 17.0297 37.0899 -7.63144 -9.63864 9.76646
lowerback 31.1386 -1.7976 -1.23542
upperback 4.94428 -1.78798 7.85115
thorax -10.6144 -0.741034 9.83365
lowerneck 0.339292 -12.6684 -9.2794
upperneck 24.6274 -17.0163 -0.224066
head 8.43801 -8.83573 0.117474
rclavicle -4.29375e-014 6.04305e-014
rhumerus -31.6687 -27.2932 -48.7734
rradius 51.199
rwrist 24.7161
rhand -24.1143 9.52327
rfingers 7.12502
rthumb 2.367 -20.4433
lclavicle -4.29375e-014 6.04305e-014
lhumerus -45.8009 8.03339 79.5103
lradius 54.1994
lwrist 14.5342
lhand -13.6712 48.0136
lfingers 7.12502
lthumb 12.4462 77.623
rfemur -38.6035 5.84787 7.5484
rtibia 31.4434
rfoot 16.9617 -9.36724
rtoes 27.218
lfemur -7.32663 3.64355 -36.4541
ltibia 52.6316
lfoot -15.3341 -0.658727
ltoes -21.194
186
root 2.35019 17.0586 36.9353 -8.03173 -9.6708 10.6264
lowerback 30.988 -1.82416 -1.95441
upperback 5.34058 -2.13559 7.44585
thorax -10.0311 -0.921832 9.87817
lowerneck 0.243853 -12.6463 -8.81705
upperneck 24.3574 -16.9082 -0.613695
head 8.27437 -8.77926 -0.0497855
rclavicle 1.59028e-015 -3.18055e-014
rhumerus -32.7394 -27.1091 -49.3587
rradius 54.2802
rwrist 24.792
rhand -24.5524 9.47946
rfingers 7.12502
rthumb 1.94385 -20.4914
lclavicle 1.59028e-015 -3.18055e-014
lhumerus -45.5366 7.80815 79.598
lradius 53.6302
lwrist 14.0977
lhand -13.2298 48.1301
lfingers 7.12502
lthumb 12.8717 77.7131
rfemur -38.4277 5.91732 6.04526
rtibia 30.5211
rfoot 17.5735 -10.8557
rtoes 29.1217
lfemur -6.82279 3.6108 -37.6454
ltibia 51.4075
lfoot -16.0543 0.373379
ltoes -20.9372
187
root 2.36658 17.0747 36.7185 -7.47883 -10.2366 9.6061
lowerback 31.143 -1.8933 -1.37584
upperback 5.35792 -2.00876 7.69526
thorax -10.113 -0.877107 9.79195
lowerneck -0.298667 -12.4523 -8.16188
upperneck 24.0066 -16.5297 -1.07841
head 8.12466 -8.58501 -0.270623
rclavicle 3.65764e-014 2.8625e-014
rhumerus -33.6469 -27.5499 -49.7172
rradius 56.6981
rwrist 25.5406
rhand -25.257 10.0241
rfingers 7.12502
rthumb 1.26336 -19.9519
lclavicle 3.65764e-014 2.8625e-014
lhumerus -45.5761 7.61353 79.7196
lradius 53.029
lwrist 13.6764
lhand -12.7249 47.9461
lfingers 7.12502
lthumb 13.3583 77.4979
rfemur -38.946 7.26396 6.37498
rtibia 29.289
rfoot 16.483 -13.7772
rtoes 28.8337
lfemur -7.92342 3.76785 -36.5198
ltibia 50.9858
lfoot -16.5022 0.736286
ltoes -20.8218
188
root 2.39153 17.0735 36.5558 -7.4801 -10.4738 10.0446
lowerback 31.0207 -1.94068 -1.83447
upperback 5.48518 -2.2552 7.49476
thorax -9.86646 -0.996076 9.90083
lowerneck -0.608823 -12.2547 -7.79323
upperneck 23.8543 -16.1722 -1.47651
head 8.04206 -8.42093 -0.426785
rclavicle 2.38542e-014 -2.8625e-014
rhumerus -35.0567 -26.4371 -50.3694
rradius 60.6133
rwrist 25.0623
rhand -25.8962 9.68684
rfingers 7.12502
rthumb 0.645968 -20.2919
lclavicle 2.38542e-014 -2.8625e-014
lhumerus -45.7258 7.40969 79.8459
lradius 52.4694
lwrist 13.2497
lhand -12.16 47.5285
lfingers 7.12502
lthumb 13.9028 77.0438
rfemur -39.1151 6.93378 5.67689
rtibia 28.6592
rfoot 15.7313 -14.0743
rtoes 23.199
lfemur -8.19779 3.87445 -37.0883
ltibia 50.3539
lfoot -16.959 1.3543
ltoes -21.1884
189
root 2.39664 17.0932 36.3626 -7.18643 -11.4569 8.42527
lowerback 31.2142 -1.97036 -0.902703
upperback 5.66765 -1.95743 7.93064
thorax -9.81756 -0.891553 9.7546
lowerneck -0.733068 -12.0133 -7.48142
upperneck 23.6672 -15.7822 -1.79954
head 7.9292 -8.24177 -0.534856
rclavicle 2.38542e-014 -9.85972e-014
rhumerus -36.2301 -25.8317 -50.9291
rradius 64.1118
rwrist 25.1542
rhand -26.6206 9.82435
rfingers 7.12502
rthumb -0.0536602 -20.1554
lclavicle 2.38542e-014 -9.85972e-014
lhumerus -45.9433 7.1566 80.0335
lradius 51.8797
lwrist 12.694
lhand -11.6231 47.115
lfingers 7.12502
lthumb 14.4202 76.594
rfemur -39.28 8.13825 7.17166
rtibia 28.2487
rfoot 13.9217 -13.7051
rtoes 15.5577
lfemur -9.00299 4.29934 -35.1508
ltibia 50.2651
lfoot -17.4495 1.47974
ltoes -18.76
190
root 2.42698 17.0909 36.21 -7.57969 -11.5895 9.4117
lowerback 31.4189 -2.01248 -1.8888
upperback 5.71239 -2.36901 7.6143
thorax -9.75947 -1.06641 10.1097
lowerneck -0.860421 -11.6035 -7.32451
upperneck 23.5755 -15.1684 -2.05767
head 7.86466 -7.96599 -0.588359
rclavicle -6.36111e-015 6.04305e-014
rhumerus -37.2853 -25.1139 -51.4431
rradius 67.2452
rwrist 25.4024
rhand -27.3252 10.5158
rfingers 7.12502
rthumb -0.734222 -19.4627
lclavicle -6.36111e-015 6.04305e-014
lhumerus -46.4352 7.05813 80.1711
lradius 51.4007
lwrist 12.2402
lhand -11.2891 46.8175
lfingers 7.12502
lthumb 14.742 76.2732
rfemur -39.2428 6.65006 6.60471
rtibia 28.8368
rfoot 13.6962 -11.1435
rtoes 9.09138
lfemur -8.93385 4.11675 -36.3143
ltibia 49.6292
lfoot -17.9853 1.9249
ltoes -16.7106
